<svg width="375" height="212" viewBox="0 0 375 212" fill="none" xmlns="http://www.w3.org/2000/svg">
<path d="M376 0H0V186C3.66667 175.333 14 154 26 154C41 154 24.2679 218.577 68 204C98 194 79.1956 178 120 178C146 178 123.198 212 171 212C222 212 219 177 282 178C332.4 178.8 365.667 150.333 376 136V0Z" fill="#3ABBD8"/>
<path d="M376 0H0V172.84C3.66667 162.928 18 143.104 26 143.104C75.0519 143.104 24.2679 196.546 68 183C98 173.708 85.1956 157 126 157C149 157 143.198 183 191 183C219 183 222.887 138.427 285 149C332 157 365.667 146.319 376 133V0Z" fill="#56E1FF"/>
</svg>
