<svg width="375" height="127" viewBox="0 0 375 127" fill="none" xmlns="http://www.w3.org/2000/svg">
<path d="M0 127L376 127L376 26C372.333 36.6667 362 58 350 58C335 58 351.732 -6.57735 308 8.00002C278 18 296.804 34 256 34C230 34 252.802 1.97472e-05 205 1.55683e-05C154 1.11097e-05 157 35 94 34C43.6 33.2 10.3333 61.6667 4.45856e-06 76L0 127Z" fill="#3ABBD8"/>
<path d="M0 126L376 126L376 39.1604C372.333 49.0723 358 68.8962 350 68.8962C300.948 68.8962 351.732 15.4541 308 29C278 38.2925 290.804 55 250 55C227 55 232.802 29 185 29C157 29 153.113 73.5725 91 63C44 55 10.3333 65.6808 4.10887e-06 79L0 126Z" fill="#56E1FF"/>
</svg>
